<?xml version="1.0" encoding="UTF-8"?>
<svg width="44px" height="44px" viewBox="0 0 44 44" version="1.1" 
    xmlns="http://www.w3.org/2000/svg" 
    xmlns:xlink="http://www.w3.org/1999/xlink">
    <title>日期选择器</title>
    <g id="选择器-Picker" stroke="none" stroke-width="1" fill="none" fill-rule="evenodd">
        <g id="Picker_Datepicker_Light" transform="translate(-333.000000, -106.000000)" fill-rule="nonzero">
            <g id="Picker/Datepicker/入口/Light" transform="translate(80.000000, 80.000000)">
                <g id="icon_list_date">
                    <g transform="translate(253.000000, 26.000000)">
                        <rect id="矩形" fill="#000000" opacity="0" x="0" y="0" width="44" height="44"></rect>
                        <path d="M7.95555575,18.7333333 L7.95555575,35.3555556 L35.3333335,35.3555556 L35.3333335,18.7333333 L7.95555575,18.7333333 Z M21.6444446,28.5111111 C22.7244682,28.5111111 23.6000002,29.3866431 23.6000002,30.4666667 C23.6000002,31.5466902 22.7244682,32.4222222 21.6444446,32.4222222 C20.5644211,32.4222222 19.6888891,31.5466902 19.6888891,30.4666667 C19.6888891,29.3866431 20.5644211,28.5111111 21.6444446,28.5111111 L21.6444446,28.5111111 Z M13.8222224,28.5111111 C14.902246,28.5111111 15.777778,29.3866431 15.777778,30.4666667 C15.777778,31.5466902 14.902246,32.4222222 13.8222224,32.4222222 C12.7421989,32.4222222 11.8666669,31.5466902 11.8666669,30.4666667 C11.8666669,29.3866431 12.7421989,28.5111111 13.8222224,28.5111111 L13.8222224,28.5111111 Z M21.6444446,21.6666667 C22.7244682,21.6666667 23.6000002,22.5421987 23.6000002,23.6222222 C23.6000002,24.7022457 22.7244682,25.5777778 21.6444446,25.5777778 C20.5644211,25.5777778 19.6888891,24.7022457 19.6888891,23.6222222 C19.6888891,22.5421987 20.5644211,21.6666667 21.6444446,21.6666667 L21.6444446,21.6666667 Z M29.4666669,21.6666667 C30.5466904,21.6666667 31.4222224,22.5421987 31.4222224,23.6222222 C31.4222224,24.7022457 30.5466904,25.5777778 29.4666669,25.5777778 C28.3866433,25.5777778 27.5111113,24.7022457 27.5111113,23.6222222 C27.5111113,22.5421987 28.3866433,21.6666667 29.4666669,21.6666667 L29.4666669,21.6666667 Z M13.8222224,21.6666667 C14.902246,21.6666667 15.777778,22.5421987 15.777778,23.6222222 C15.777778,24.7022457 14.902246,25.5777778 13.8222224,25.5777778 C12.7421989,25.5777778 11.8666669,24.7022457 11.8666669,23.6222222 C11.8666669,22.5421987 12.7421989,21.6666667 13.8222224,21.6666667 L13.8222224,21.6666667 Z M16.7555558,7 L16.7555558,14.8222222 L14.8000002,14.8222222 L14.8000002,7 L16.7555558,7 Z M28.4888891,7 L28.4888891,14.8222222 L26.5333335,14.8222222 L26.5333335,7 L28.4888891,7 Z M24.577778,9.93333335 L24.577778,11.8888889 L18.7111113,11.8888889 L18.7111113,9.93333335 L24.577778,9.93333335 L24.577778,9.93333335 Z M37.2888892,35.3555556 C37.2892129,36.378922 36.5004844,37.2294698 35.4800002,37.3062222 L35.3333335,37.3111112 L7.95555575,37.3111112 C6.93218932,37.311435 6.08164153,36.5227064 6.0048891,35.5022222 L6.0000001,35.3555556 L6.0000001,11.8888889 C5.99967633,10.8655224 6.78840487,10.0149746 7.8088891,9.9382222 L7.95555575,9.93333325 L12.8444446,9.93333325 L12.8444446,11.8888889 L7.95555575,11.8888889 L7.95555575,16.7777778 L35.3333335,16.7777778 L35.3333335,11.8888889 L30.4444446,11.8888889 L30.4444446,9.93333325 L35.3333335,9.93333325 C36.3567,9.93300949 37.2072478,10.721738 37.2840002,11.7422222 L37.2888892,11.8888889 L37.2888892,35.3555556 L37.2888892,35.3555556 Z" id="形状" fill="#323232"></path>
                    </g>
                </g>
            </g>
        </g>
    </g>
</svg>