<?xml version="1.0" encoding="UTF-8"?>
<svg width="128" height="128" viewBox="0 0 48 48" version="1.1" xmlns="http://www.w3.org/2000/svg" xmlns:xlink="http://www.w3.org/1999/xlink">
    <title>icon_list_multiSelect</title>
    <g id="页面-1" stroke="none" stroke-width="1" fill="none" fill-rule="evenodd">
        <g id="通用与功能图标--" transform="translate(-333.000000, -3646.000000)">
            <g id="icon_list_multiSelect" transform="translate(333.000000, 3646.000000)">
                <rect id="透明底图" x="0" y="0" width="48" height="48"></rect>
                <g id="编组" transform="translate(3.000000, 3.000000)" fill="#e93030">
                    <path d="M21,0 C32.5983,0 42,9.4017 42,21 C42,32.5983 32.5983,42 21,42 C9.4017,42 0,32.5983 0,21 C0,9.4017 9.4017,0 21,0 Z M31.3458372,13.2718407 C30.9138984,12.9243609 30.2804564,12.9510901 29.8795182,13.3520284 L29.8795182,13.3520284 L17.0063362,26.2252104 L11.3064792,20.7250055 L11.2157458,20.6464253 C10.7776719,20.3067128 10.1448081,20.3447474 9.75109222,20.7527802 C9.32925377,21.1899583 9.34168895,21.8863287 9.77874045,22.3082937 L9.77874045,22.3082937 L16.2564702,28.5584861 L16.3460394,28.6361566 C16.7784149,28.972334 17.4022082,28.9406082 17.7980937,28.5447227 L17.7980937,28.5447227 L31.4351531,14.9076633 L31.5153407,14.8183474 C31.8628206,14.3864086 31.8360914,13.7529667 31.4351531,13.3520284 L31.4351531,13.3520284 Z" id="形状结合"></path>
                </g>
            </g>
        </g>
    </g>
</svg>