<?xml version="1.0" encoding="UTF-8"?>
<svg width="128" height="128" viewBox="0 0 25 25" version="1.1" xmlns="http://www.w3.org/2000/svg" xmlns:xlink="http://www.w3.org/1999/xlink">
    <title>icon_list_info</title>
    <g id="页面-1" stroke="none" stroke-width="1" fill="none" fill-rule="evenodd">
        <g id="通用与功能图标--" transform="translate(-1762.000000, -4682.000000)">
            <g id="icon_list_info" transform="translate(1762.755195, 4682.500000)">
                <rect id="透明底图" x="0" y="0" width="24" height="24"></rect>
                <g id="编组" transform="translate(0.000000, 0.500000)" fill="#666" fill-rule="nonzero">
                    <path d="M12,0 C18.3514347,0 23.5,5.14856525 23.5,11.5 C23.5,17.8514347 18.3514347,23 12,23 C5.64856525,23 0.5,17.8514347 0.5,11.5 C0.5,5.14856525 5.64856525,0 12,0 Z M12,2 C6.75313475,2 2.5,6.25313475 2.5,11.5 C2.5,16.7468653 6.75313475,21 12,21 C17.2468653,21 21.5,16.7468653 21.5,11.5 C21.5,6.25313475 17.2468653,2 12,2 Z M12,9 C12.5128358,9 12.9355072,9.38604019 12.9932723,9.88337887 L13,10 L13,16 C13,16.5522847 12.5522847,17 12,17 C11.4871642,17 11.0644928,16.6139598 11.0067277,16.1166211 L11,16 L11,10 C11,9.44771525 11.4477153,9 12,9 Z M12,6 C12.5522847,6 13,6.44771525 13,7 C13,7.55228475 12.5522847,8 12,8 C11.4477153,8 11,7.55228475 11,7 C11,6.44771525 11.4477153,6 12,6 Z" id="形状"></path>
                </g>
            </g>
        </g>
    </g>
</svg>