<?xml version="1.0" encoding="UTF-8"?>
<svg width="99px" height="28px" viewBox="0 0 99 28" version="1.1" xmlns="http://www.w3.org/2000/svg" xmlns:xlink="http://www.w3.org/1999/xlink">
    <title>THS for APP Dark @2x</title>
    <g id="页脚-Footer" stroke="none" stroke-width="1" fill="none" fill-rule="evenodd">
        <g id="Footer_Dark" transform="translate(-406.000000, -523.000000)" fill="#8E8E8E">
            <g id="Footer/文字+品牌logo/Dark" transform="translate(80.000000, 234.000000)">
                <g id="THS-for-APP/normal-备份" transform="translate(326.000000, 289.000000)">
                    <g id="THS-for-APP-Dark-">
                        <path d="M25.4409589,8.71254719 L25.7377603,6.48127933 C25.8017763,5.97196818 25.5398927,5.8021978 25.0161255,5.8021978 L9.5300756,5.8021978 C9.00630842,5.8021978 8.70950701,5.97196818 8.64549102,6.48127933 L8.34868961,8.71254719 C8.28467362,9.2582377 8.61057321,9.42800808 9.07032441,9.42800808 L24.5563743,9.42800808 C25.0161255,9.44013453 25.3769429,9.2582377 25.4409589,8.71254719 Z M29.016368,0.011625611 L6.94878593,0.011625611 C5.10473717,0.000752666468 3.52201748,1.32965551 3.20342365,3.15635339 L0.0129298548,27.1225505 C-0.0506488259,27.5817621 0.111187816,27.9072792 0.700735582,27.9072792 L3.07626629,27.9072792 C3.65425429,27.9072792 3.89122938,27.6166389 3.98948734,27.0876736 L7.05282377,4.02827421 C7.09216204,3.68782683 7.3957362,3.44203165 7.73484962,3.47605769 L27.3170833,3.47605769 C27.7101151,3.47605769 27.8372725,3.66788027 27.8950713,3.90039249 L25.2363264,23.251222 L25.2710057,23.251222 L24.7450366,27.1341761 C24.681458,27.5933877 24.8432946,27.9189048 25.4328424,27.9189048 L27.8083731,27.9189048 C28.0366001,27.9423955 28.2638337,27.8659168 28.4320293,27.7090044 C28.600225,27.552092 28.6930944,27.3299416 28.6869148,27.0992992 L29.2128839,23.251222 L29.2764626,22.7920104 L31.6519933,5.10364323 L31.8196098,3.94108213 L31.9120879,3.15635339 L31.9120879,2.63320089 C31.8485092,1.22650196 30.8370302,0.046502444 29.016368,0 L29.016368,0.011625611 Z M22.3005445,11.2533089 L10.384605,11.2533089 C9.59238357,11.1831298 8.89255031,11.766685 8.81930223,12.5585348 L8.55938111,14.4470696 L6.89010989,26.8351648 L18.7771693,26.8351648 C20.2385036,26.8351648 21.1511155,26.477094 21.4456928,25.7609524 C21.6837882,25.2429348 21.8583369,24.69802 21.9655351,24.138083 L23.5250618,12.7548962 L23.559718,12.5585348 C23.6405823,11.7615385 23.3113489,11.2764103 22.3005445,11.2417582 L22.3005445,11.2533089 Z M18.2175162,22.0306069 C18.2025498,22.3807758 18.0645123,22.7141769 17.828065,22.971246 C17.5623889,23.152193 17.2422857,23.2338483 16.9231637,23.2020776 L11.2417582,23.2020776 L12.4387479,14.5054945 L19.2197802,14.5054945 L18.2175162,22.0306069 Z M94.6280028,24.4371573 L94.0595269,24.4371573 L94.0595269,24.4254817 C93.6537122,24.4420691 93.2494956,24.3642383 92.8770971,24.1978081 C91.8822644,23.736623 90.9215401,21.7109115 90.313271,20.7885414 C90.7907907,16.9414408 91.2114628,14.267735 91.6889826,10.4556611 C91.7515149,10.023665 91.5923417,9.79599136 91.1205067,9.79599136 L89.1649497,9.79599136 C88.8717879,9.75934056 88.5930864,9.93639885 88.4941482,10.2221497 C88.4662837,10.2978224 88.4453491,10.3759977 88.4316158,10.4556611 C87.9199875,14.267735 87.533424,16.9414408 87.0217957,20.7885414 C86.2202447,21.7751271 85.1913034,23.3104647 84.1794163,24.0985657 C83.6109405,24.5247241 82.6104229,24.3962928 82.0305775,24.3962928 L81.9055129,24.3962928 C81.492965,24.3790815 81.1400529,24.6977986 81.1039619,25.1201782 L80.8765715,27.2217809 C80.8140392,27.7471816 81.1039619,27.9106396 81.5814816,27.9106396 L83.5370386,27.9106396 C84.2665827,27.9689287 84.9977801,27.8215785 85.6517688,27.4844813 C86.1684222,27.1111389 86.6331578,26.6672806 87.0331652,26.1651418 L88.380453,24.2328348 L88.5055177,24.4254817 L89.5628828,26.5270845 C90.0879872,27.4554587 91.0843231,27.993126 92.126709,27.9106396 L94.2073307,27.9106396 C94.6905352,27.9106396 95.0429902,27.7471816 95.1055225,27.2217809 L95.3613367,25.1201782 C95.4352385,24.6181286 95.1737396,24.4254817 94.6336876,24.4254817 L94.6280028,24.4371573 Z M98.3623372,0.0116905288 L85.3808908,0.0116905288 C85.1613507,-0.00933081644 84.942664,0.0595637031 84.7745992,0.202695127 C84.6065344,0.345826551 84.5033884,0.551018985 84.488635,0.771574898 L84.2262069,2.76481005 C84.1620578,3.34933649 84.4594763,3.51884915 84.8851931,3.51884915 L89.3581354,3.51884915 L89.1598563,5.27242847 L86.8913106,5.27242847 C85.246131,5.27851386 83.8379407,6.45677345 83.5380619,8.07815537 L83.5030715,8.37041859 L83.3047924,9.79081783 L81.8643534,20.1720074 L81.6369157,21.7853003 L81.6019252,22.1477067 C81.5669348,22.4458152 81.6369157,22.6737805 81.8643534,22.77315 C81.9634929,22.8082216 82.0626325,22.8082216 82.1909307,22.8432932 L84.267029,22.8432932 C84.4696658,22.8613836 84.6705322,22.7930832 84.8203598,22.6551445 C84.9701874,22.5172058 85.0551157,22.3223897 85.0543135,22.1184804 L86.9554597,8.74451551 C86.9855177,8.44471114 87.2380202,8.21693174 87.5386334,8.21844171 L93.5861446,8.21844171 C93.976871,8.2535133 94.0760105,8.45225229 94.0468518,8.74451551 L92.2973308,22.1477067 C92.2331817,22.5451847 92.3614799,22.8082216 92.8805045,22.8432932 L94.9507711,22.8432932 C95.1534079,22.8613836 95.3542742,22.7930832 95.5041019,22.6551445 C95.6539295,22.5172058 95.7388577,22.3223897 95.7380556,22.1184804 L95.773046,21.9489677 L97.4409227,9.79081783 L97.6392018,8.17752486 L97.6392018,8.07815537 C97.8083222,6.6285298 96.8869077,5.34257164 95.0790693,5.27242847 L92.7463745,5.27242847 L92.7463745,5.26073794 L92.647235,5.26073794 L92.8396823,3.50715863 L97.8374808,3.50715863 C98.0536895,3.5338334 98.270976,3.46672535 98.4347104,3.32270677 C98.5984448,3.17868818 98.6930521,2.97145857 98.6947462,2.75311952 L98.9571743,0.759884369 C99.1087995,0.227965311 98.8463713,0 98.3506737,0 L98.3623372,0.0116905288 Z M34.4191672,6.56555898 L38.9570401,6.56555898 L38.8932896,6.99909545 L38.8295392,7.43263192 C38.7599932,7.96712894 38.9280626,8.335338 39.611931,8.335338 L42.3532003,8.335338 C42.6149448,8.36348073 42.8763598,8.27914991 43.0751705,8.10243504 C43.2739812,7.92572017 43.3923885,7.67244222 43.402185,7.40293764 C43.402185,6.99909545 43.4659354,6.93376804 43.5007084,6.56555898 L54.0195324,6.56555898 L53.9499865,6.99909545 L53.886236,7.40293764 C53.8224856,7.99682322 54.0195324,8.335338 54.7034009,8.335338 L57.4794431,8.335338 C57.7411876,8.36348073 58.0026026,8.27914991 58.2014133,8.10243504 C58.400224,7.92572017 58.5186313,7.67244222 58.5284278,7.40293764 L58.5921782,6.99909545 L58.5574052,6.99909545 L58.6211557,6.56555898 L64.416651,6.56555898 C64.5635608,6.56740068 64.708721,6.53276005 64.8397222,6.46459843 C65.1086919,6.33457597 65.2850465,6.06235667 65.2975663,5.7578746 L65.6279095,3.82180762 C65.69166,3.22792204 65.4308627,3.02006209 64.9092681,3.02006209 L59.1601368,3.02006209 L59.1601368,2.94879582 L59.4209341,1.00085113 C59.5194575,0.406965552 59.2876377,0.0328176388 58.6327467,0.0328176388 L55.8567044,0.0328176388 C55.5899926,0.0060252612 55.3246371,0.0958587722 55.1259912,0.280193399 C54.9273453,0.464528026 54.8138709,0.726231978 54.8135153,1.00085113 L54.552718,2.94879582 L54.552718,2.99036781 L44.033894,2.99036781 L44.2946913,0.97115685 C44.3584417,0.335699283 44.1613949,0.00312336001 43.5122994,0.00312336001 L40.7652346,0.00312336001 C40.5074391,-0.0182056108 40.2524753,0.0703860944 40.0605069,0.247993503 C39.8685384,0.425600911 39.7565701,0.676491471 39.7510229,0.941462571 L39.4902256,2.88940726 L39.4902256,2.99036781 L34.9813303,2.99036781 C34.7538904,2.95795262 34.5238262,3.02727954 34.3497138,3.18069742 C34.1756014,3.33411529 34.0742402,3.55682151 34.0714375,3.79211334 L33.7410943,5.76381345 C33.6541618,6.34582132 33.9323456,6.55368127 34.4075762,6.55368127 L34.4191672,6.56555898 Z M83.3911444,0.690619922 C83.4625915,0.231573618 83.2899277,0.00495582273 82.7957518,0.00495582273 L80.6463845,0.00495582273 C80.4471637,-0.0187426036 80.2472332,0.0433043481 80.0986274,0.174948152 C79.9500215,0.306591955 79.8674394,0.494811398 79.8723741,0.690619922 L77.3598173,18.7038293 L76.1690321,27.2339555 C76.1035389,27.629084 76.2404792,27.9196196 76.7644247,27.9196196 L78.913792,27.9196196 C79.114989,27.9389961 79.3154429,27.8763357 79.4676644,27.7464833 C79.6198858,27.6166309 79.7103308,27.4311401 79.717572,27.2339555 L82.3015759,8.38400354 L83.3911444,0.690619922 Z M63.4370905,9.79905112 L60.6547279,9.79905112 C60.1411683,9.73626013 59.6570234,10.0561005 59.5049912,10.5586009 L58.3552546,14.5374731 C58.2374462,15.089291 57.9270516,15.5791004 57.4814548,15.916348 C56.945735,16.1805834 56.3505901,16.2955101 55.7568499,16.2493814 L51.4108455,16.2493814 L51.9339756,12.5684864 L52.1581743,10.7572524 C52.2559019,10.1729833 52.0259546,9.80489381 51.3821021,9.80489381 L48.6572263,9.80489381 C48.3971924,9.77709383 48.1375565,9.86098236 47.9410521,10.0362902 C47.7445477,10.2115981 47.6290492,10.4623789 47.6224633,10.7280389 L47.5592278,11.1545553 L47.3637726,12.5684864 L45.742644,24.4642042 C45.5933374,25.3138851 45.7792036,26.1891481 46.2600254,26.9006061 C46.7486635,27.5608301 47.846662,27.9230769 49.6000103,27.9230769 L62.6552696,27.9230769 L63.2301379,24.4174626 L51.7902586,24.4174626 C50.8187311,24.4174626 50.3645852,24.0260024 50.4968049,23.202183 L50.9164587,19.7316249 L58.5334638,19.7316249 C60.0281214,19.7316249 61.0341409,19.3051085 61.5170303,18.4170195 C61.9736882,17.6729223 62.333125,16.8715871 62.5862854,16.0332018 C63.1611537,13.7311818 63.6210483,12.7145537 64.1729219,10.4125336 C64.2476548,9.91006223 64.0234561,9.79905112 63.4370905,9.79905112 Z M73.9645236,0.691788959 C74.0295366,0.232311866 73.8640488,0.00548140276 73.3734958,0.00548140276 L71.2694367,0.00548140276 C71.0685609,-0.019431449 70.8664419,0.0413270737 70.7140017,0.172449395 C70.5615614,0.303571716 70.4733346,0.49255587 70.4715492,0.691788959 L67.4395765,22.7932187 L67.3745635,23.223615 C67.2740888,24.0436944 66.7067021,24.4333775 65.6724034,24.4333775 L65.0813756,24.4333775 L64.5494505,27.9230769 L65.7787884,27.9230769 C67.5814232,27.9230769 68.8462227,27.5973716 69.5140842,26.9401449 C70.1709969,26.2255752 70.5843147,25.3266879 70.6961398,24.3693997 L72.7942885,9.09033228 L73.9645236,0.691788959 Z M78.3160358,0.691092106 C78.3817043,0.232053762 78.2145482,0.00543989587 77.7190497,0.00543989587 L75.5698998,0.00543989587 C75.3664304,-0.0193310856 75.1617327,0.0412339986 75.0068502,0.172032627 C74.8519677,0.302831256 74.7614973,0.491536254 74.7579987,0.691092106 L72.2387174,18.7039891 L71.0925042,27.2339675 C71.0268357,27.6290891 71.1581726,27.9196197 71.6894902,27.9196197 L73.8147607,27.9196197 C74.0164962,27.9389958 74.2174866,27.8763365 74.3701154,27.7464864 C74.5227443,27.6166362 74.6134313,27.4311487 74.6206919,27.2339675 L77.1459431,9.07580515 L78.3160358,0.691092106 Z M43.4344611,9.42857143 L40.7185318,9.42857143 C40.0336089,9.45531284 39.4113144,9.83774963 39.0740767,10.4391862 L37.1660505,13.0610098 C36.8400684,13.5889564 36.3992133,14.0352589 35.8768435,14.3661467 C35.323954,14.6021569 34.7296853,14.7239105 34.1292519,14.7241931 L33.9344384,14.7241931 C33.6983744,14.686442 33.4573321,14.7487975 33.2684883,14.8964684 C33.0796444,15.0441393 32.9598249,15.2639681 32.9374517,15.5038102 L32.6452314,17.9292858 C32.5822035,18.4779053 32.9030728,18.6742533 33.4187556,18.6742533 L36.489933,18.6742533 L35.6075425,25.2114874 L35.3497011,27.0017194 C35.2866732,27.5272391 35.4471079,27.9141602 36.1232253,27.9141602 L38.8678036,27.9141602 C39.1344492,27.9518745 39.4039899,27.8687763 39.6040731,27.6871715 C39.8041564,27.5055668 39.9142856,27.2440591 39.904899,26.9728447 L40.0309548,26.0950535 L41.6811397,14.0138752 L44.0704699,10.4507361 C44.4658267,9.76351805 44.1449574,9.42857143 43.4344611,9.42857143 Z" id="形状"></path>
                    </g>
                </g>
            </g>
        </g>
    </g>
</svg>